<svg width="257" height="121" viewBox="0 0 257 121" fill="none" xmlns="http://www.w3.org/2000/svg">
<g clip-path="url(#clip0_1976_25)">
<path d="M104.604 92.748C110.396 92.7482 115.903 95.2593 119.701 99.6309L138.269 121H0L18.5674 99.6309C22.3659 95.2591 27.8736 92.748 33.665 92.748H104.604ZM161.922 27.2217C165.083 30.8604 166.824 35.5185 166.824 40.3389V121H138.269V76.1855H41.5811C17.0333 76.1855 7.01368 51.786 7.01367 37.3457C7.01367 22.9054 17.0333 0 41.5811 0H138.269L161.922 27.2217ZM207.01 27.2217C210.171 30.8604 211.912 35.5186 211.912 40.3389V121H183.356V0L207.01 27.2217ZM252.097 27.2217C255.258 30.8604 257 35.5185 257 40.3389V121H228.444V0L252.097 27.2217ZM119.586 21.501C115.787 25.8727 110.28 28.3828 104.488 28.3828H41.5791C37.5713 28.3828 35.0664 33.8603 35.0664 38.3418C35.0665 42.8232 37.5714 47.3047 41.5791 47.3047H138.268V0L119.586 21.501Z" fill="#F0EDE8"></path>
</g>
<defs>
<clipPath id="clip0_1976_25">
<rect width="257" height="121" fill="white"></rect>
</clipPath>
</defs>
</svg>